<svg width="110" height="110" viewBox="0 0 110 110" fill="none" xmlns="http://www.w3.org/2000/svg">
<rect width="110" height="110" fill="#312E38"/>
<path d="M53.3477 62.3633C52.5566 63.2422 51.3994 63.9502 49.876 64.4873C48.3525 65.0244 46.6826 65.293 44.8662 65.293C42.0732 65.293 39.8418 64.4385 38.1719 62.7295C36.502 61.0205 35.6084 58.6426 35.4912 55.5957L35.4766 53.75C35.4766 51.6504 35.8477 49.8193 36.5898 48.2568C37.332 46.6846 38.3916 45.4785 39.7686 44.6387C41.1553 43.7891 42.7568 43.3643 44.5732 43.3643C47.2295 43.3643 49.29 43.9746 50.7549 45.1953C52.2295 46.4062 53.0889 48.2178 53.333 50.6299H48.3818C48.2061 49.4385 47.8252 48.5889 47.2393 48.0811C46.6533 47.5732 45.8232 47.3193 44.749 47.3193C43.46 47.3193 42.4639 47.8662 41.7607 48.96C41.0576 50.0537 40.7012 51.6162 40.6914 53.6475V54.9365C40.6914 57.0654 41.0527 58.667 41.7754 59.7412C42.5078 60.8057 43.6553 61.3379 45.2178 61.3379C46.5557 61.3379 47.5518 61.04 48.2061 60.4443V57.1338H44.6318V53.6035H53.3477V62.3633Z" fill="#FF9000"/>
<path d="M56.9287 65V43.6719H64.5898C67.334 43.6719 69.4189 44.1748 70.8447 45.1807C72.2803 46.1865 72.998 47.6465 72.998 49.5605C72.998 50.6641 72.7441 51.6064 72.2363 52.3877C71.7285 53.1689 70.9814 53.7451 69.9951 54.1162C71.1084 54.4092 71.9629 54.9561 72.5586 55.7568C73.1543 56.5576 73.4521 57.5342 73.4521 58.6865C73.4521 60.7764 72.7881 62.3486 71.46 63.4033C70.1416 64.4482 68.1836 64.9805 65.5859 65H56.9287ZM62.0703 55.9326V61.0449H65.4395C66.3672 61.0449 67.0801 60.835 67.5781 60.415C68.0762 59.9854 68.3252 59.3848 68.3252 58.6133C68.3252 56.8359 67.4414 55.9424 65.6738 55.9326H62.0703ZM62.0703 52.5635H64.751C65.874 52.5537 66.6748 52.3486 67.1533 51.9482C67.6318 51.5479 67.8711 50.957 67.8711 50.1758C67.8711 49.2773 67.6123 48.6328 67.0947 48.2422C66.5771 47.8418 65.7422 47.6416 64.5898 47.6416H62.0703V52.5635Z" fill="#FF9000"/>
<line y1="9.125" x2="110" y2="9.125" stroke="white" stroke-opacity="0.1"/>
<line y1="19.2083" x2="110" y2="19.2083" stroke="white" stroke-opacity="0.1"/>
<line y1="29.2917" x2="110" y2="29.2917" stroke="white" stroke-opacity="0.1"/>
<line y1="39.375" x2="110" y2="39.375" stroke="white" stroke-opacity="0.1"/>
<line y1="49.4583" x2="110" y2="49.4583" stroke="white" stroke-opacity="0.1"/>
<line y1="59.5417" x2="110" y2="59.5417" stroke="white" stroke-opacity="0.1"/>
<line y1="69.625" x2="110" y2="69.625" stroke="white" stroke-opacity="0.1"/>
<line y1="79.7083" x2="110" y2="79.7083" stroke="white" stroke-opacity="0.1"/>
<line y1="89.7917" x2="110" y2="89.7917" stroke="white" stroke-opacity="0.1"/>
<line y1="99.875" x2="110" y2="99.875" stroke="white" stroke-opacity="0.1"/>
<line x1="9.125" y1="110" x2="9.12499" y2="2.00344e-08" stroke="white" stroke-opacity="0.1"/>
<line x1="19.2083" y1="110" x2="19.2083" y2="2.00344e-08" stroke="white" stroke-opacity="0.1"/>
<line x1="29.2917" y1="110" x2="29.2917" y2="2.00344e-08" stroke="white" stroke-opacity="0.1"/>
<line x1="39.375" y1="110" x2="39.375" y2="2.00344e-08" stroke="white" stroke-opacity="0.1"/>
<line x1="49.4583" y1="110" x2="49.4583" y2="2.00344e-08" stroke="white" stroke-opacity="0.1"/>
<line x1="59.5417" y1="110" x2="59.5417" y2="2.00344e-08" stroke="white" stroke-opacity="0.1"/>
<line x1="69.625" y1="110" x2="69.625" y2="2.00344e-08" stroke="white" stroke-opacity="0.1"/>
<line x1="79.7083" y1="110" x2="79.7083" y2="2.00344e-08" stroke="white" stroke-opacity="0.1"/>
<line x1="89.7917" y1="110" x2="89.7917" y2="2.00344e-08" stroke="white" stroke-opacity="0.1"/>
<line x1="99.875" y1="110" x2="99.875" y2="2.00344e-08" stroke="white" stroke-opacity="0.1"/>
<circle cx="55" cy="55.4583" r="32.5" stroke="black" stroke-opacity="0.1"/>
</svg>
